<?xml version="1.0" encoding="UTF-8"?>
<svg width="600px" height="300px" viewBox="0 0 600 300" version="1.1" xmlns="http://www.w3.org/2000/svg" xmlns:xlink="http://www.w3.org/1999/xlink">
    <!-- Generator: Sketch 61 (89581) - https://sketch.com -->
    <title>Artboard</title>
    <desc>Created with Sketch.</desc>
    <defs>
        <radialGradient cx="50%" cy="50%" fx="50%" fy="50%" r="94.3789063%" gradientTransform="translate(0.500000,0.500000),scale(0.500000,1.000000),rotate(90.000000),translate(-0.500000,-0.500000)" id="radialGradient-1">
            <stop stop-color="#7690A4" offset="0%"></stop>
            <stop stop-color="#41576B" offset="100%"></stop>
        </radialGradient>
        <filter x="-7.0%" y="-7.0%" width="114.2%" height="114.0%" filterUnits="objectBoundingBox" id="filter-2">
            <feOffset dx="0" dy="2" in="SourceAlpha" result="shadowOffsetOuter1"></feOffset>
            <feGaussianBlur stdDeviation="2" in="shadowOffsetOuter1" result="shadowBlurOuter1"></feGaussianBlur>
            <feColorMatrix values="0 0 0 0 0   0 0 0 0 0   0 0 0 0 0  0 0 0 0.5 0" type="matrix" in="shadowBlurOuter1" result="shadowMatrixOuter1"></feColorMatrix>
            <feMerge>
                <feMergeNode in="shadowMatrixOuter1"></feMergeNode>
                <feMergeNode in="SourceGraphic"></feMergeNode>
            </feMerge>
        </filter>
    </defs>
    <g id="Artboard" stroke="none" stroke-width="1" fill="none" fill-rule="evenodd">
        <rect fill="#FFFFFF" x="0" y="0" width="600" height="300"></rect>
        <rect id="Rectangle" fill="url(#radialGradient-1)" x="0" y="0" width="600" height="300"></rect>
        <text id="FakerMaker" font-family="Lato-Medium, Lato" font-size="60" font-weight="400" fill="#D8DEE4">
            <tspan x="158" y="270">FakerMaker</tspan>
        </text>
        <g id="logo" transform="translate(222.000000, 39.000000)">
            <g id="Group-2">
                <path d="M171,38.187156 L171,131.288073 L169.883411,131.287564 C170.618047,133.136683 171,135.034436 171,136.968807 C171,156.316001 132.790973,172 85.6577491,172 C38.5245254,172 0.315498155,156.316001 0.315498155,136.968807 C0.315498155,135.034436 0.697450997,133.136683 1.43208765,131.287564 L0.315498155,131.288073 L0.315498155,38.187156 L171,38.187156 Z" id="Combined-Shape" fill="#D8DEE4"></path>
                <ellipse id="Oval" fill="#D8DEE4" cx="85.3422509" cy="33.6110092" rx="85.3422509" ry="33.6110092"></ellipse>
                <g id="1c9998f7a557ab6daaeedb7062d32dbe" filter="url(#filter-2)" fill-rule="nonzero">
                    <path d="M170.684502,68.8 C170.684502,87.7902041 132.472074,103.2 85.3422509,103.2 C38.2124283,103.2 0,87.7902041 0,68.8 L6.82738007,68.8 C6.82738007,83.9991837 41.974454,96.32 85.3422509,96.32 C128.710048,96.32 163.857122,83.9991837 163.857122,68.8 L170.684502,68.8 L170.684502,68.8 Z" id="Path" fill="#BA365C"></path>
                    <path d="M170.684502,103.2 C170.684502,122.190204 132.472074,137.6 85.3422509,137.6 C38.2124283,137.6 0,122.190204 0,103.2 L6.82738007,103.2 C6.82738007,118.399184 41.974454,130.72 85.3422509,130.72 C128.710048,130.72 163.857122,118.399184 163.857122,103.2 L170.684502,103.2 Z" id="Path" fill="#BA365C"></path>
                    <path d="M170.684502,137.6 C170.684502,156.590204 132.472074,172 85.3422509,172 C38.2124283,172 0,156.590204 0,137.6 L6.82738007,137.6 C6.82738007,152.799184 41.974454,165.12 85.3422509,165.12 C128.710048,165.12 163.857122,152.799184 163.857122,137.6 L170.684502,137.6 Z" id="Path" fill="#BA365C"></path>
                    <path d="M85.3422509,0 C38.2124283,0 0,15.4097959 0,34.4 C0,53.3902041 38.2124283,68.8 85.3422509,68.8 C132.472074,68.8 170.684502,53.3902041 170.684502,34.4 C170.684502,15.4097959 132.472074,0 85.3422509,0 Z M85.3422509,61.92 C41.974454,61.92 6.82738007,49.5991837 6.82738007,34.4 C6.82738007,19.2008163 41.974454,6.88 85.3422509,6.88 C128.710048,6.88 163.857122,19.2008163 163.857122,34.4 C163.857122,49.5991837 128.710048,61.92 85.3422509,61.92 Z" id="Shape" fill="#C23959"></path>
                    <path d="M0,33.7688073 L6.82738007,33.7688073 L6.82738007,140.440367 L0,140.440367 L0,33.7688073 Z M163.857122,33.7688073 L170.684502,33.7688073 L170.684502,140.440367 L163.857122,140.440367 L163.857122,33.7688073 Z" id="Shape" fill="#BA365C"></path>
                    <polygon id="Path" fill="#BA365C" points="147.02214 134.601835 153.9631 131.288073 153.9631 141.229358 147.02214 144.543119"></polygon>
                </g>
                <g id="6b5c4ae333438d1c801ec2f117d9f9b1" transform="translate(22.715867, 14.201835)" fill="#BA365C" fill-rule="nonzero">
                    <g id="Group" transform="translate(63.099631, 19.566972) scale(-1, 1) rotate(-180.000000) translate(-63.099631, -19.566972) ">
                        <path d="M28.8596746,38.7467173 C23.8339123,37.7922355 23.9189477,34.8418263 28.9447099,33.8357318 C33.4168748,32.968214 38.4860229,34.2521687 38.4860229,36.2827403 C38.4877578,38.2956363 33.3752248,39.5972666 28.8596746,38.7467173 Z" id="Path"></path>
                        <path d="M89.3926904,38.8160056 C87.6468628,38.5035012 85.8576498,37.6183077 85.515773,36.8893665 C85.0888609,35.882565 85.6858437,35.102011 87.4750567,34.3730697 C89.3059197,33.6271599 91.1819035,33.4009124 93.6947846,33.5748402 C95.6974537,33.7310924 98.4237909,34.8418263 98.8073176,35.6747001 C99.8277417,37.9138436 94.4184527,39.7011991 89.3926904,38.8160056 Z" id="Path"></path>
                        <path d="M58.7209631,26.3207787 C49.3063359,25.3662969 43.1733788,21.5653384 44.7907857,17.678123 C46.5366133,13.6000113 56.2497319,10.735859 66.0045005,11.4131875 C74.0984767,11.9858766 80.2331693,14.4852048 81.6388555,17.7820555 C83.8115953,23.0062524 71.4589103,27.6047334 58.7209631,26.3207787 Z M67.2835014,23.4919775 C70.094874,23.1101848 73.4598439,21.7392662 74.3969681,20.5938881 C77.1233053,17.3656186 71.3304896,14.0687679 62.9814073,14.0687679 C56.7616794,14.0687679 51.267355,16.3595241 51.267355,18.9281406 C51.267355,20.229771 52.4179353,21.3405049 54.887431,22.3296309 C58.2957864,23.7175181 62.6829159,24.1339549 67.2835014,23.4919775 Z" id="Shape"></path>
                        <path d="M2.79026822,23.6023182 C1.55465263,23.4663773 0.447457764,23.2917091 0.319037043,23.2340133 C-0.106139669,23.0395862 2.06486468,19.8386531 3.89746308,17.8991247 C7.3474684,14.2911594 12.0330893,11.2838629 18.6797293,8.3927485 C46.3248927,-3.61588805 90.41485,-2.1608466 114.098061,11.5549543 C117.591451,13.5727277 120.359438,15.6869243 122.490528,17.8991247 C124.236356,19.7611984 126.494131,23.0403766 126.110604,23.2150448 C125.770463,23.3699541 120.614544,23.8939588 120.145982,23.8165041 C119.932526,23.7975356 119.293893,23.0214081 118.696911,22.1283082 C117.461295,20.1492622 114.309781,17.0842699 111.625094,15.2221962 C103.066026,9.30481685 90.0729732,5.32775623 74.2702828,3.77550125 C68.6475377,3.2127693 57.1885915,3.27125548 51.309005,3.85295592 C36.9953008,5.30799738 24.9827572,8.85826692 16.3785688,14.174187 C13.1402842,16.153233 9.05164608,19.8781708 7.64595981,22.1283082 C6.49537956,23.9903819 6.4537296,24.0101408 2.79026822,23.6023182 Z" id="Path"></path>
                    </g>
                </g>
            </g>
        </g>
    </g>
</svg>